<svg xmlns="http://www.w3.org/2000/svg" width="440" height="450" viewBox="100 60 440 450"><defs><clipPath id="hexClip"><path d="M 319 72 L 318 73 L 309 74 Q 307 77 302 77 L 295 82 L 282 88 L 279 91 L 269 95 L 246 108 L 243 111 L 237 113 L 223 122 L 201 134 L 199 134 L 134 171 Q 127 176 123 184 L 120 197 L 120 367 L 122 367 Q 123 371 120 374 L 120 386 L 122 392 L 130 402 L 131 405 L 141 412 L 144 412 L 147 415 L 179 432 Q 180 434 181 432 L 194 441 L 296 496 Q 297 499 299 497 L 302 500 L 309 503 L 312 503 Q 313 505 314 503 L 316 504 L 334 503 L 340 499 L 344 498 L 382 476 L 384 476 L 387 473 L 389 473 L 408 463 L 437 446 L 457 436 L 460 433 L 466 431 L 471 427 L 475 426 L 491 416 L 493 416 L 496 413 L 505 409 L 517 395 L 519 391 Q 518 385 520 384 L 520 207 L 518 201 L 518 192 L 519 191 L 515 180 L 504 169 L 497 166 L 484 157 L 471 150 L 469 150 L 456 142 L 452 141 L 446 136 L 436 132 L 428 126 L 417 121 L 412 117 L 401 112 L 349 82 L 328 72 L 319 72 Z"/></clipPath></defs><g clip-path="url(#hexClip)"><path fill="rgb(66,25,143)" stroke="rgb(66,25,143)" stroke-width="0.5" d="M 319 72 L 318 73 L 309 74 Q 307 77 302 77 L 295 82 L 282 88 L 279 91 L 269 95 L 246 108 L 243 111 L 237 113 L 223 122 L 201 134 L 199 134 L 134 171 Q 127 176 123 184 L 120 197 L 120 367 L 122 367 Q 123 371 120 374 L 120 386 L 122 392 L 130 402 L 131 405 L 141 412 L 144 412 L 147 415 L 179 432 Q 180 434 181 432 L 194 441 L 296 496 Q 297 499 299 497 L 302 500 L 309 503 L 312 503 Q 313 505 314 503 L 316 504 L 334 503 L 340 499 L 344 498 L 382 476 L 384 476 L 387 473 L 389 473 L 408 463 L 437 446 L 457 436 L 460 433 L 466 431 L 471 427 L 475 426 L 491 416 L 493 416 L 496 413 L 505 409 L 517 395 L 519 391 Q 518 385 520 384 L 520 207 L 518 201 L 518 192 L 519 191 L 515 180 L 504 169 L 497 166 L 484 157 L 471 150 L 469 150 L 456 142 L 452 141 L 446 136 L 436 132 L 428 126 L 417 121 L 412 117 L 401 112 L 349 82 L 328 72 L 319 72 Z"/><path fill="rgb(242,188,96)" stroke="rgb(242,188,96)" stroke-width="0.5" opacity="1" d="M 318.5 72 L 327.5 72 L 348.5 82 L 400.5 112 L 411.5 117 L 416.5 121 L 427.5 126 L 435.5 132 L 445.5 136 L 451.5 141 L 455.5 142 L 468.5 150 L 470.5 150 L 483.5 157 L 496.5 166 L 503.5 169 L 515 179.5 L 519 190.5 L 517.5 195 L 513 189.5 Q 512.1 182.4 507.5 179 L 504 178 L 500.5 173 Q 497 172.5 496.5 175 L 495.5 173 L 497 172.5 Q 493.2 172.8 492 170.5 L 485.5 163 L 473.5 158 L 468.5 153 L 464.5 153 L 458.5 149 L 454.5 148 L 442.5 140 L 439 140 Q 440.1 137.3 437.5 138 L 422 129.5 Q 422.8 127.3 420.5 128 L 418 127 L 416.5 124 L 408.5 119 L 407 119.5 L 404.5 116 L 398.5 114 L 394.5 111 L 387.5 110 Q 386.2 106.3 382 107 Q 383.1 104.3 380.5 105 L 377.5 103 L 370.5 102 Q 369.4 99.3 366 100 L 366 98 Q 362.3 99.5 363 96.5 L 362 93 L 354 92 Q 355.1 89.3 352.5 90 Q 344.8 87.7 340.5 82 L 331.5 79 L 327.5 80 L 322.5 78 L 313.5 77 L 306.5 79 L 295 87.5 L 293.5 90 L 274.5 94 L 272 96.5 Q 272.5 100.5 269.5 101 L 255.5 107 L 233.5 119 L 220.5 127 L 213.5 134 Q 212.5 132 211.5 134 L 206 135 Q 207.3 138.3 202.5 137 L 182.5 148 L 173.5 152 L 169.5 152 L 166.5 154 L 166 152 L 175.5 148 L 198.5 134 L 200.5 134 L 222.5 122 L 236.5 113 L 242.5 111 L 250.5 105 L 252.5 105 L 268.5 95 L 278.5 91 L 281.5 88 L 294.5 82 L 301.5 77 Q 306.7 77.2 308.5 74 L 317.5 73 L 318.5 72 Z "/><path fill="rgb(242,188,96)" stroke="rgb(242,188,96)" stroke-width="0.5" opacity="1" d="M 226.5 135 Q 230.9 133.5 230 136.5 L 209.5 149 L 201 152 L 204 147.5 L 204.5 143 L 207.5 144 L 211 142 L 211.5 140 Q 212.5 142 213.5 140 L 218 140 Q 216.9 137.3 219.5 138 L 226.5 135 Z "/><path fill="rgb(242,188,96)" stroke="rgb(242,188,96)" stroke-width="0.5" opacity="1" d="M 431.5 143 Q 432.5 145 433.5 143 L 435.5 143 L 441.5 148 L 444 148 L 444.5 153 Q 445.8 150.8 447 153.5 L 445.5 156 L 428.5 147 L 426 144.5 L 431.5 143 Z "/><path fill="rgb(242,188,96)" stroke="rgb(242,188,96)" stroke-width="0.5" opacity="1" d="M 159.5 156 L 160 157.5 L 156.5 162 L 150.5 166 L 148.5 166 L 145 169.5 L 144.5 171 Q 143.5 169 142.5 171 L 138.5 171 L 133 175.5 Q 133.8 180.3 130.5 181 L 127 182.5 L 123.5 189 Q 120.9 189.8 122 186.5 Q 125.5 176.5 133.5 171 L 159.5 156 Z "/><path fill="rgb(242,188,96)" stroke="rgb(242,188,96)" stroke-width="0.5" opacity="1" d="M 484.5 175 L 489.5 176 Q 490.5 174 491.5 176 L 496 178.5 L 497.5 181 L 500 182.5 L 501 189 L 499.5 189 Q 493.9 181.6 485 177.5 L 484.5 175 Z "/><path fill="rgb(242,188,96)" stroke="rgb(242,188,96)" stroke-width="0.5" opacity="1" d="M 192 209 Q 206 214.3 218 222.5 Q 218.8 225.1 215.5 224 Q 209.5 217.5 198.5 216 L 192 210.5 L 192 209 Z "/><path fill="rgb(242,188,96)" stroke="rgb(242,188,96)" stroke-width="0.5" opacity="1" d="M 250.5 241 L 258.5 244 Q 264.2 249.3 272.5 252 L 279 258.5 Q 280.8 267.3 275.5 269 L 275 266.5 L 277 261.5 L 276 257 L 264.5 250 L 257.5 248 L 253 244.5 Q 253.8 242.3 251.5 243 L 250.5 241 Z "/><path fill="rgb(242,188,96)" stroke="rgb(242,188,96)" stroke-width="0.5" opacity="1" d="M 340.5 257 L 341 260.5 L 337.5 269 L 336 269 L 336 264 L 334.5 264 Q 333.2 266.3 332 263.5 L 340.5 257 Z "/><path fill="rgb(242,188,96)" stroke="rgb(242,188,96)" stroke-width="0.5" opacity="1" d="M 363.5 258 L 364 261.5 L 367.5 268 L 374.5 268 L 375 270 L 367.5 270 L 362 264.5 Q 360.8 259.3 363.5 258 Z "/><path fill="rgb(242,188,96)" stroke="rgb(242,188,96)" stroke-width="0.5" opacity="1" d="M 347.5 284 L 360.5 288 L 362 289.5 L 358.5 292 L 352.5 293 L 350 292 Q 351.1 289.3 348.5 290 Q 345.5 289.5 346 285.5 L 347.5 284 Z "/><path fill="rgb(242,188,96)" stroke="rgb(242,188,96)" stroke-width="0.5" opacity="1" d="M 267.5 310 L 273.5 310 L 279 315.5 L 279 322.5 L 272.5 329 L 270 328.5 L 273 325.5 L 276 318.5 Q 273.6 312.9 265.5 313 L 258.5 316 L 259.5 314 L 267.5 310 Z "/><path fill="rgb(242,188,96)" stroke="rgb(242,188,96)" stroke-width="0.5" opacity="1" d="M 414.5 332 L 435 343.5 L 432.5 344 Q 428.5 340.5 421.5 340 L 414 334.5 L 414.5 332 Z "/><path fill="rgb(242,188,96)" stroke="rgb(242,188,96)" stroke-width="0.5" opacity="1" d="M 439.5 347 L 442.5 347 L 447.5 351 L 450.5 351 L 461.5 358 L 465.5 359 L 474 366.5 L 474 372.5 L 468.5 379 L 460.5 379 L 459 377.5 L 464.5 374 L 466.5 375 L 470 369.5 L 467 364 L 462.5 361 L 458.5 360 L 447.5 352 L 441.5 350 L 439.5 347 Z "/><path fill="rgb(242,188,96)" stroke="rgb(242,188,96)" stroke-width="0.5" opacity="1" d="M 503.5 381 L 505 386.5 L 499.5 396 Q 492.7 396.7 490.5 402 L 483.5 403 L 477 407 Q 478.1 409.7 475.5 409 L 470.5 413 L 461.5 415 L 453.5 421 L 451.5 421 L 443.5 426 L 440.5 426 L 434 430.5 L 432.5 433 Q 425.9 438.4 416.5 441 L 412.5 445 L 408 446 Q 409.3 449 405.5 448 L 391 454.5 L 388.5 459 L 384.5 459 L 376.5 462 L 367.5 470 L 365.5 469 L 359 474.5 L 356.5 478 Q 355.3 475.8 354 478.5 L 355 480.5 Q 353.2 483.2 348.5 483 L 346.5 482 Q 344.2 484.7 338.5 484 L 337 485.5 L 335.5 488 L 331 489 Q 332.1 491.7 329.5 491 Q 326.6 494.6 318.5 493 L 308.5 489 L 294.5 480 L 289.5 479 L 282.5 473 L 269.5 468 L 259.5 460 L 248.5 456 L 244.5 452 L 238.5 451 Q 234.2 445.3 226.5 443 L 225.5 444 L 222.5 441 L 220 439.5 Q 220.8 437.3 218.5 438 L 215.5 435 L 205.5 430 Q 204.5 432 203.5 430 L 201.5 430 L 189.5 422 L 184.5 422 Q 183.5 424 182.5 422 L 174 418 L 172.5 415 L 168.5 415 L 168 417 L 164 417 L 164 414.5 L 153.5 403 Q 146.6 401.4 143 396.5 L 138 389.5 L 138 387 L 139.5 387 L 148.5 396 L 165.5 405 L 168.5 408 L 180.5 413 L 211.5 431 L 222.5 436 L 228.5 441 L 231.5 441 L 238.5 446 L 240.5 446 L 251.5 453 L 253.5 453 L 278.5 468 L 280.5 468 L 298.5 478 L 302.5 482 L 305.5 482 L 313.5 486 L 328.5 486 L 425.5 432 L 427.5 432 L 443.5 422 L 449.5 420 L 454.5 416 L 456.5 416 L 465.5 410 L 489.5 398 L 500 387.5 L 503.5 381 Z "/><path fill="rgb(242,188,96)" stroke="rgb(242,188,96)" stroke-width="0.5" opacity="1" d="M 518.5 384 L 519 390.5 Q 513.8 401.8 504.5 409 L 495.5 413 L 496.5 411 L 500 408.5 Q 498.9 405.2 501.5 406 L 511.5 393 Q 513.8 393.8 513 391.5 L 515.5 388 Q 517.8 388.8 517 386.5 L 518.5 384 Z "/><path fill="rgb(242,188,96)" stroke="rgb(242,188,96)" stroke-width="0.5" opacity="1" d="M 127 397 L 132 398 L 132 400.5 L 136.5 405 Q 138.8 404.3 138 406.5 L 139 409 L 144 411.5 L 140.5 412 L 131 404.5 L 127 397 Z "/><path fill="rgb(242,188,96)" stroke="rgb(242,188,96)" stroke-width="0.5" opacity="1" d="M 485.5 415 L 486 416.5 L 471.5 425 L 471 422 L 473.5 422 L 481.5 416 L 485.5 415 Z "/><path fill="rgb(242,188,96)" stroke="rgb(242,188,96)" stroke-width="0.5" opacity="1" d="M 152 416 L 156.5 417 Q 157.5 415 158.5 417 L 160.5 418 Q 161.5 416 162.5 418 L 164 418.5 Q 161.8 419.8 164.5 421 Q 167.8 419.9 167 422.5 L 169 426 L 152 418 L 152 416 Z "/><path fill="rgb(242,188,96)" stroke="rgb(242,188,96)" stroke-width="0.5" opacity="1" d="M 378.5 471 L 380.5 472 Q 381.8 469.8 386.5 471 L 386 472.5 L 383.5 476 L 378.5 475 Q 376.6 478.6 372 478 Q 370.9 475.3 373.5 476 L 373.5 474 L 378.5 471 Z "/><path fill="rgb(242,188,96)" stroke="rgb(242,188,96)" stroke-width="0.5" opacity="1" d="M 366.5 481 L 366.5 482 L 366.5 481 Z "/><path fill="rgb(242,188,96)" stroke="rgb(242,188,96)" stroke-width="0.5" opacity="1" d="M 358.5 485 Q 362.3 484.3 363 486.5 L 343.5 498 L 338 499 L 338.5 495 L 341 496 L 342.5 493 L 346 491.5 L 347.5 488 Q 351 488.5 351.5 486 Q 352.5 488 353.5 486 Q 357.5 487 358.5 485 Z "/><path fill="rgb(231,182,114)" stroke="rgb(231,182,114)" stroke-width="0.5" opacity="1" d="M 273.5 109 L 279 109.5 L 243.5 130 L 234 134 Q 232.9 131.3 235.5 132 L 240.5 128 L 253.5 122 L 258.5 117 L 262.5 116 L 273.5 109 Z "/><path fill="rgb(231,182,114)" stroke="rgb(231,182,114)" stroke-width="0.5" opacity="1" d="M 188.5 157 L 192 157.5 L 189.5 160 L 160.5 176 L 157.5 176 L 160.5 172 L 188.5 157 Z "/><path fill="rgb(231,182,114)" stroke="rgb(231,182,114)" stroke-width="0.5" opacity="1" d="M 136.5 198 L 138 338.5 L 137 339.5 L 136.5 370 L 136.5 198 Z "/><path fill="rgb(231,182,114)" stroke="rgb(231,182,114)" stroke-width="0.5" opacity="1" d="M 338.5 317 L 339 318.5 L 337 319.5 L 338.5 317 Z "/><path fill="rgb(231,182,114)" stroke="rgb(231,182,114)" stroke-width="0.5" opacity="1" d="M 519.5 325 L 520 370 L 518 369.5 L 518 355.5 L 519 354.5 L 519 337.5 L 518 334.5 L 519 332.5 L 518 328.5 L 519.5 325 Z "/><path fill="rgb(231,182,114)" stroke="rgb(231,182,114)" stroke-width="0.5" opacity="1" d="M 488.5 415 L 491 415.5 Q 482.5 423 470.5 427 L 473.5 423 L 479.5 421 L 488.5 415 Z "/><path fill="rgb(231,182,114)" stroke="rgb(231,182,114)" stroke-width="0.5" opacity="1" d="M 458.5 432 L 460 432.5 L 456.5 436 L 436.5 446 L 407.5 463 L 393.5 469 L 395.5 466 L 458.5 432 Z "/><path fill="rgb(231,182,114)" stroke="rgb(231,182,114)" stroke-width="0.5" opacity="1" d="M 378.5 475 L 382 475.5 L 365.5 486 L 362.5 486 L 363.5 484 L 378.5 475 Z "/><path fill="rgb(235,181,92)" stroke="rgb(235,181,92)" stroke-width="0.5" opacity="1" d="M 313.5 77 L 330.5 80 L 332.5 79 L 340.5 82 Q 345.3 88.4 354 90 Q 352.8 93 356.5 92 Q 357.9 94.3 362 93 L 363 98 L 366 98 Q 364.8 101 368.5 100 L 370.5 102 Q 378 102.3 382 105 Q 380.8 108 384.5 107 L 387.5 110 L 394.5 111 L 407 118.5 L 407.5 120 Q 409 117.5 410.5 121 L 418 125.5 Q 417.3 127.8 419.5 127 L 422 128 L 423.5 131 L 439 138 Q 437.7 141.3 442.5 140 L 454.5 148 L 456.5 148 L 464.5 153 L 468.5 153 L 473.5 158 L 482.5 161 L 492 169.5 L 493.5 172 L 497 172.5 L 495 173.5 Q 496.8 176.8 498.5 173 L 500.5 173 L 504 176.5 Q 503.3 178.8 505.5 178 L 510 181.5 L 513 189.5 L 518 195.5 L 518 200.5 L 520 206.5 L 520 324.5 Q 517.5 326.5 518 331.5 L 519 333.5 L 518 336.5 L 519 337.5 L 519 354.5 L 518 355.5 L 518 370 L 520 370.5 L 520 384 Q 517.3 382.9 518 385.5 L 517 388 L 514 389.5 L 513 393 L 510 394.5 L 501.5 406 Q 498.9 405.2 500 408.5 L 495 412.5 L 492.5 416 L 488.5 415 L 486.5 416 Q 485.5 414 484.5 416 L 481.5 416 L 473.5 422 L 471 422 Q 471.8 427 468.5 429 L 460.5 433 L 458.5 432 L 433.5 446 L 423.5 450 L 419.5 454 L 407.5 459 L 393 468.5 Q 395.3 469.8 392.5 471 L 386.5 473 L 386.5 471 L 379.5 472 Q 378.5 470 377.5 472 L 373 474.5 L 373.5 476 L 372 476 Q 373.5 479.8 370.5 479 Q 368.3 483.2 366 481.5 L 364.5 484 L 352.5 487 Q 351 484.5 349.5 488 L 346 489.5 L 344.5 493 L 341 494.5 Q 341.8 496.8 339.5 496 L 338 495.5 L 339 499.5 L 333.5 503 L 315.5 504 L 313.5 503 Q 312.5 505 311.5 503 L 308.5 503 L 301.5 500 L 298.5 497 Q 297 499.5 295.5 496 L 193.5 441 L 180.5 432 Q 179.5 434 178.5 432 L 169 426.5 L 167 421 Q 164 421.8 163 419.5 L 163.5 418 L 161.5 417 Q 160.5 419 159.5 417 L 157.5 416 L 155.5 417 L 152.5 416 L 150.5 417 L 144 412.5 L 142.5 410 L 139 409 L 138 405 L 136.5 405 L 132 400.5 Q 133.1 397.2 130.5 398 L 126.5 397 L 123 393.5 L 120 385.5 L 120 373.5 L 121 373.5 L 123 380.5 L 122 383.5 L 126 386.5 L 128 391 L 130 390.5 L 130 382.5 L 129 380.5 Q 131.5 379 130 373.5 Q 127.5 373 128 369.5 Q 130 368.5 128 367.5 L 127 364.5 Q 128 362.3 131 363 L 131 358 L 129.5 358 L 125 363.5 L 124 369 L 122 369 L 122 367 L 120 366.5 L 120 307 Q 122.7 308.1 122 305.5 L 130.5 302 L 133.5 304 L 135.5 300 L 136 369.5 L 137 370.5 L 137 378.5 L 139 386.5 L 138 389.5 L 146.5 400 Q 155.5 402.4 160 409.5 L 164 414.5 L 164 417 L 168 417 L 168.5 415 L 172.5 415 L 174 418 L 183.5 423 Q 184.8 420.8 189.5 422 L 204.5 431 Q 205.5 429 206.5 431 L 210.5 432 L 220 438 L 221.5 441 L 225.5 444 Q 226.5 442 227.5 444 L 231.5 445 L 238.5 451 L 244.5 452 L 248.5 456 L 259.5 460 L 269.5 468 L 282.5 473 L 289.5 479 L 296.5 481 L 314.5 492 L 326.5 493 L 331 491 Q 329.9 488.3 332.5 489 L 337 486.5 L 338.5 484 L 342.5 484 L 347.5 482 L 350.5 483 L 355 480.5 L 354 478.5 Q 355.3 475.8 356.5 478 L 359 475.5 L 362.5 471 L 366.5 469 L 368.5 470 L 376.5 462 L 384.5 459 L 388.5 459 L 390 457.5 L 392.5 453 L 408 448 Q 406.8 445 410.5 446 L 416.5 441 Q 427.1 438.1 434 431.5 L 435.5 429 L 453.5 421 L 461.5 415 L 468.5 414 Q 471.7 409.8 477 409 Q 475.9 406.3 478.5 407 Q 481.8 401.8 490.5 402 L 495.5 397 L 501 394.5 L 505 385.5 L 503 380.5 L 503 204.5 L 502 203.5 L 502 194.5 L 500 189.5 Q 502 188.5 501 184.5 L 498.5 181 L 496 179.5 L 494.5 177 L 490.5 175 L 488.5 176 L 484.5 175 L 484.5 177 L 476.5 174 L 471.5 170 L 469.5 170 L 462.5 165 L 449.5 159 L 446 155.5 L 447 153.5 Q 445.5 151 444 152.5 Q 446.1 146.7 441.5 148 L 435.5 143 L 433.5 143 L 430.5 144 Q 426.5 143 425.5 145 L 375.5 117 L 373.5 117 L 332.5 93 L 326.5 90 Q 321 91 318.5 89 L 316.5 91 L 308.5 93 L 280.5 109 L 273.5 109 Q 273 111.5 269.5 111 L 262.5 116 L 258.5 117 L 253.5 122 L 249.5 123 L 237.5 131 L 234 132 Q 234.8 135 232.5 136 L 226.5 135 L 218 138 Q 219.3 141.7 213.5 140 L 211 140.5 Q 211.8 142.8 209.5 142 Q 209 144.5 205.5 144 L 204 143.5 L 204 147.5 L 198.5 155 Q 195.5 158 188.5 157 L 184.5 160 L 181.5 160 L 173.5 166 L 160.5 172 L 157 175.5 Q 159.3 176.8 156.5 178 Q 146.8 181.3 141 188.5 L 138 198 L 136 198.5 L 136 291.5 L 134 290.5 L 134 285.5 L 131 280.5 L 131 272.5 L 129 264.5 L 132 263 Q 132.8 260 130.5 259 L 126 261.5 L 125 264.5 Q 127 265.5 126 269.5 L 128 271.5 Q 125 273.5 126 279.5 L 122.5 285 L 120 284 L 120 196.5 L 121 195.5 L 121 189 Q 124 189.8 125 187.5 L 125 185.5 L 128.5 181 Q 132.5 181.5 133 178.5 Q 132.3 174.8 134.5 174 L 138.5 171 Q 142.5 172 143.5 170 L 145 170.5 L 148.5 166 L 150.5 166 L 158 160.5 L 161.5 155 L 165.5 153 Q 166.5 155 167.5 153 L 173.5 152 L 202.5 137 L 206 137 Q 204.7 133.7 209.5 135 L 212.5 133 L 213.5 134 L 220.5 127 L 247.5 111 L 264.5 104 L 272 98.5 Q 271.5 94.5 274.5 94 L 282.5 93 L 286.5 91 L 291.5 91 L 295 88.5 L 298.5 84 Q 304.4 83.4 306.5 79 L 313.5 77 Z M 393 116 L 393 119 Q 394 121 396 119 Q 401 119 404 123 L 407 122 Q 401 120 399 116 L 393 116 Z M 125 221 L 125 230 L 128 233 L 131 229 L 130 223 L 125 221 Z M 510 235 L 508 237 L 508 242 L 514 247 Q 516 246 514 245 Q 515 240 513 241 L 511 239 Q 513 240 514 238 Q 513 235 510 235 Z M 201 431 L 203 435 L 202 437 L 204 436 L 209 440 L 215 441 L 216 443 Q 215 446 218 445 Q 220 438 215 436 L 212 437 L 211 436 L 204 431 L 201 431 Z "/><path fill="rgb(235,181,92)" stroke="rgb(235,181,92)" stroke-width="0.5" opacity="1" d="M 316.5 120 Q 326.6 118.4 329 124.5 L 330 126.5 L 330 139.5 L 329 140.5 L 328.5 159 L 327 151.5 L 328 150.5 L 328 141.5 Q 325.5 140 327 134.5 L 325 130.5 L 326 127.5 L 322.5 124 L 320.5 124 L 317.5 127 L 311 129 Q 311.3 122.6 316.5 120 Z "/><path fill="rgb(235,181,92)" stroke="rgb(235,181,92)" stroke-width="0.5" opacity="1" d="M 328.5 167 L 330 170.5 L 330 235.5 L 324.5 241 L 317.5 241 L 312 234.5 L 313.5 233 L 316.5 236 L 323 236 L 323 233.5 Q 324 231.3 327 232 L 328 227.5 L 328 216.5 L 327 213.5 Q 329.5 212 328 206.5 L 327 203.5 L 328 201.5 L 327 200.5 L 327 181.5 L 328 180.5 L 328.5 167 Z "/><path fill="rgb(235,181,92)" stroke="rgb(235,181,92)" stroke-width="0.5" opacity="1" d="M 173.5 201 L 180.5 201 L 186 204 Q 184.7 207.3 189.5 206 L 194.5 213 L 198.5 216 L 206.5 218 L 215.5 224 L 217.5 224 Q 218.5 222 219.5 224 Q 224.7 224.4 226.5 228 L 229.5 228 L 237.5 234 L 243.5 236 L 250 240.5 L 251.5 243 Q 253.8 242.3 253 244.5 L 257.5 248 L 264.5 250 L 276 257 L 277 263.5 Q 274.2 265.5 275 270 L 265.5 270 L 263.5 269 L 230.5 250 L 173.5 220 L 167 213.5 L 167.5 210 L 169.5 214 L 173.5 215 Q 174.8 211.8 180.5 213 L 188 219.5 Q 187.3 221.8 189.5 221 L 191.5 222 L 195 218.5 L 195 216.5 L 185.5 209 Q 181.8 209.8 181 207.5 L 179 203 Q 173.3 204.3 173.5 201 Z M 219 230 L 216 232 L 210 232 L 209 234 L 214 235 L 217 241 Q 218 243 222 242 L 223 245 L 227 246 L 232 246 L 243 253 Q 249 252 252 256 L 256 255 L 265 263 L 274 263 L 275 262 L 274 260 L 268 255 L 264 255 L 261 252 Q 258 253 259 250 L 247 243 L 242 243 L 232 234 Q 227 235 226 232 L 222 232 L 219 230 Z "/><path fill="rgb(235,181,92)" stroke="rgb(235,181,92)" stroke-width="0.5" opacity="1" d="M 462.5 201 L 468.5 201 L 474 206.5 L 474 213.5 L 467.5 220 L 383.5 266 L 375.5 269 L 374.5 268 L 367.5 268 L 366 266.5 L 363.5 258 L 362 258.5 L 366.5 253 L 373.5 251 L 386.5 242 L 400.5 236 L 403.5 233 L 413.5 227 L 419.5 225 L 422.5 222 L 428.5 221 L 439.5 213 L 441.5 213 L 446.5 209 L 450.5 208 L 462.5 201 Z M 462 204 L 460 207 L 454 210 L 452 213 L 447 213 L 445 215 L 440 216 L 434 221 L 432 221 L 430 224 L 427 225 Q 428 229 425 231 Q 426 233 430 232 L 433 233 L 447 225 L 449 226 L 452 224 L 452 221 L 454 221 Q 453 218 456 219 L 460 212 L 464 211 L 467 213 Q 469 214 468 211 L 470 211 L 471 209 L 470 207 Q 468 203 462 204 Z M 409 234 L 400 241 L 383 249 L 380 254 Q 379 257 384 255 L 387 251 Q 391 250 393 253 L 399 253 L 405 249 Q 407 250 406 247 L 412 245 L 414 243 L 413 241 L 415 239 Q 413 238 415 237 Q 414 233 409 234 Z M 371 253 L 366 256 L 367 258 L 366 261 L 369 262 L 370 261 L 373 264 L 374 263 Q 377 264 376 261 Q 379 262 380 260 L 379 255 Q 377 251 371 253 Z "/><path fill="rgb(235,181,92)" stroke="rgb(235,181,92)" stroke-width="0.5" opacity="1" d="M 319 251 Q 322.7 249.5 322 252.5 Q 324.5 254.5 324 259.5 L 327.5 264 L 331.5 263 Q 333 266.5 334.5 264 L 336 264 L 336 269 L 337.5 269 Q 338.5 273 344.5 272 Q 346 269.5 351.5 271 L 353 272.5 L 346 279.5 L 347 284.5 L 346 287.5 L 350 290 Q 348.9 292.7 351.5 292 L 350.5 294 Q 346.8 293.3 346 295.5 L 346 298.5 L 354 306.5 L 354 308.5 L 352.5 308 L 349.5 309 Q 346.5 306 339.5 307 Q 337.3 307.8 338 311.5 Q 340 312.5 339 316.5 L 337 320 L 329 314.5 Q 327.9 311.2 330.5 312 Q 334.6 309.7 335 305 L 342 300.5 L 343 295.5 L 342 294.5 Q 345.5 293 343 291.5 L 344 284.5 Q 341 283.5 342 278.5 L 338.5 274 L 334 270.5 L 332.5 267 Q 331.5 269 330.5 267 Q 324.5 267 322.5 263 L 318.5 263 L 313.5 268 L 307.5 268 L 304 263 Q 301 263.8 300 261.5 L 302.5 258 L 308.5 263 L 313.5 264 L 317 260.5 L 319 251 Z "/><path fill="rgb(235,181,92)" stroke="rgb(235,181,92)" stroke-width="0.5" opacity="1" d="M 287 270 L 292.5 270 L 302 272.5 L 300.5 275 L 297.5 274 L 293.5 277 L 291.5 277 L 287 272.5 L 287 270 Z "/><path fill="rgb(235,181,92)" stroke="rgb(235,181,92)" stroke-width="0.5" opacity="1" d="M 295.5 283 L 297 286.5 Q 293.9 288.3 295.5 290 L 294 290.5 L 295 292.5 L 292.5 294 L 286 292 L 285 287.5 L 293.5 285 L 295.5 283 Z "/><path fill="rgb(235,181,92)" stroke="rgb(235,181,92)" stroke-width="0.5" opacity="1" d="M 294.5 299 Q 297.5 298.1 296 302.5 L 298 306.5 L 292.5 309 L 287.5 309 L 286 307.5 L 294.5 299 Z "/><path fill="rgb(235,181,92)" stroke="rgb(235,181,92)" stroke-width="0.5" opacity="1" d="M 369.5 310 L 376.5 311 Q 384.6 314.4 389.5 321 L 396.5 322 L 414 332 Q 413.3 335.8 416.5 337 L 432.5 344 L 436.5 344 L 439 346.5 L 441.5 350 L 447.5 352 L 458.5 360 L 462.5 361 L 467 364 L 470 370.5 L 466.5 375 L 464.5 374 L 460.5 377 L 457.5 377 L 399 344.5 L 403.5 343 L 410.5 346 Q 413 345 412 340.5 L 407 336.5 L 405.5 333 L 374 315 L 371.5 311 Q 368.5 311.5 369.5 310 Z M 422 342 Q 418 343 419 349 L 421 350 L 429 352 L 430 355 L 443 363 L 450 363 L 451 362 L 456 363 L 453 358 L 449 359 L 446 354 L 432 346 L 430 346 L 425 342 L 422 342 Z "/><path fill="rgb(235,181,92)" stroke="rgb(235,181,92)" stroke-width="0.5" opacity="1" d="M 302 311 L 306.5 313 L 308.5 312 L 311 313 L 311 314.5 L 302.5 323 L 300 321.5 L 302 315.5 L 302 311 Z "/><path fill="rgb(235,181,92)" stroke="rgb(235,181,92)" stroke-width="0.5" opacity="1" d="M 265.5 313 Q 273.6 312.9 276 318.5 L 273 325.5 L 268.5 331 L 188.5 375 L 180.5 379 L 173.5 379 L 168 374.5 Q 167.1 371.5 171.5 373 L 174 374 L 173 370.5 L 176.5 367 Q 181.1 367.6 182.5 365 L 186.5 367 L 189.5 365 L 191.5 366 L 198 361.5 L 201 356.5 Q 198.3 355.4 199 352 L 201 351.5 L 198.5 350 L 190 355.5 L 188.5 358 L 185.5 358 L 181.5 362 L 179.5 362 L 176.5 360 L 173.5 362 L 173 360 L 183.5 356 L 188.5 352 L 197.5 349 L 203.5 344 L 220.5 335 L 223.5 335 L 226.5 332 L 228.5 332 L 233.5 328 L 248.5 320 L 250.5 320 L 253.5 317 Q 261.5 317 265.5 313 Z M 259 320 L 252 324 L 249 324 L 247 327 L 249 328 L 248 330 L 245 331 L 244 328 L 237 332 L 234 332 L 230 337 L 238 341 L 239 338 L 242 340 L 251 334 L 253 334 Q 255 333 254 328 Q 255 324 259 325 Q 264 323 259 320 Z "/><path fill="rgb(235,181,92)" stroke="rgb(235,181,92)" stroke-width="0.5" opacity="1" d="M 315 313 Q 322.5 311.8 326 315.5 L 323 323.5 L 323 326.5 L 321.5 328 L 316 319.5 L 315 313 Z "/><path fill="rgb(235,181,92)" stroke="rgb(235,181,92)" stroke-width="0.5" opacity="1" d="M 362.5 320 L 374.5 326 L 380.5 326 L 383 328.5 L 385.5 332 Q 387.8 331.3 387 333.5 L 391 336.5 L 393.5 340 L 398 342.5 Q 398.8 344.8 396.5 344 L 367.5 328 L 362 322.5 L 362.5 320 Z "/><path fill="rgb(235,181,92)" stroke="rgb(235,181,92)" stroke-width="0.5" opacity="1" d="M 317.5 339 L 323.5 339 L 329 343 L 330 346.5 L 330 385 L 328 385.5 L 328 394.5 L 326 393.5 L 327 391.5 Q 325 390.5 327 389.5 L 327 380.5 L 325 376.5 L 325 370.5 L 323 363.5 L 325 358.5 L 326 350.5 Q 324 349.5 325 345.5 L 323.5 344 L 316.5 343 L 311.5 350 L 311 346.5 Q 311.9 341.9 315.5 340 L 317.5 339 Z "/><path fill="rgb(235,181,92)" stroke="rgb(235,181,92)" stroke-width="0.5" opacity="1" d="M 328.5 404 L 329 411.5 L 330 412.5 L 330 450.5 L 324.5 457 L 317.5 457 L 311 450.5 L 311.5 445 L 315.5 450 L 323.5 449 L 326 446.5 L 326 435.5 L 327 433.5 L 326 432.5 L 326 425.5 L 323 419.5 L 323 415.5 L 328 408.5 L 328.5 404 Z "/><path fill="rgb(235,178,79)" stroke="rgb(235,178,79)" stroke-width="0.5" opacity="1" d="M 393 116 L 398.5 116 Q 401.4 120.1 407 121.5 L 403.5 123 Q 401 119.5 395.5 119 Q 394.3 121.3 393 118.5 L 393 116 Z "/><path fill="rgb(235,178,79)" stroke="rgb(235,178,79)" stroke-width="0.5" opacity="1" d="M 320.5 124 L 322.5 124 L 326 127.5 L 325 131.5 L 326 136 L 319.5 137 L 316 135 L 317 127.5 L 320.5 124 Z "/><path fill="rgb(235,178,79)" stroke="rgb(235,178,79)" stroke-width="0.5" opacity="1" d="M 172.5 202 L 179 203 L 182.5 209 L 185.5 209 L 195 216.5 L 195 218.5 L 191.5 222 L 188 221 L 188 219.5 L 182.5 214 L 175.5 213 Q 174 216.5 172.5 214 Q 168.8 214.8 168 212.5 L 167 206.5 L 172.5 202 Z "/><path fill="rgb(235,178,79)" stroke="rgb(235,178,79)" stroke-width="0.5" opacity="1" d="M 461.5 204 Q 467.7 203.3 470 206.5 L 471 208.5 L 470 211 L 468 211 Q 469.1 213.7 466.5 213 L 463.5 211 L 457.5 213 L 452 211.5 L 460 206.5 L 461.5 204 Z "/><path fill="rgb(235,178,79)" stroke="rgb(235,178,79)" stroke-width="0.5" opacity="1" d="M 446.5 213 L 449 213.5 L 446 216.5 L 443.5 223 Q 442.2 220.8 441 223.5 Q 441.8 226.1 438.5 225 L 434 228.5 L 433.5 230 L 432.5 229 L 429.5 232 Q 425.8 232.8 425 230.5 Q 428 229.3 427 225 L 430 223.5 L 431.5 221 L 433.5 221 L 439.5 216 L 444.5 215 L 446.5 213 Z "/><path fill="rgb(235,178,79)" stroke="rgb(235,178,79)" stroke-width="0.5" opacity="1" d="M 227.5 234 L 231.5 234 L 241.5 243 L 246.5 243 L 259 250 Q 257.9 252.7 260.5 252 L 263.5 255 L 267.5 255 L 274 259.5 L 275 261.5 L 273.5 263 L 264.5 263 L 255.5 255 L 251.5 256 L 249.5 254 L 244 253 Q 244.6 248.9 241.5 247 L 239.5 248 L 235 243.5 L 235 241 L 230 241 L 230 239.5 L 226 236.5 L 227.5 234 Z "/><path fill="rgb(235,178,79)" stroke="rgb(235,178,79)" stroke-width="0.5" opacity="1" d="M 408.5 234 Q 414 233 415 236.5 L 410.5 241 Q 409.5 239 408.5 241 L 396 249.5 L 395 253 L 386.5 251 L 383.5 255 Q 379.1 256.5 380 253.5 L 382.5 249 L 399.5 241 L 408.5 234 Z "/><path fill="rgb(235,178,79)" stroke="rgb(235,178,79)" stroke-width="0.5" opacity="1" d="M 509.5 235 Q 513.5 234.5 514 237.5 Q 512.5 240 511 238.5 L 512.5 241 Q 515.5 240.1 514 244.5 Q 516.3 245.8 513.5 247 L 508 241.5 L 508 236.5 L 509.5 235 Z "/><path fill="rgb(235,178,79)" stroke="rgb(235,178,79)" stroke-width="0.5" opacity="1" d="M 370.5 253 Q 377.3 251.3 379 254.5 L 380 259.5 Q 379 261.8 376 261 Q 377.3 264 373.5 263 L 372.5 264 L 369.5 261 L 368.5 262 L 366 260.5 L 367 257.5 L 366 255.5 L 370.5 253 Z "/><path fill="rgb(235,178,79)" stroke="rgb(235,178,79)" stroke-width="0.5" opacity="1" d="M 302 263 Q 304.7 261.9 304 264.5 Q 305.5 269.5 313.5 268 L 318.5 263 L 322.5 263 L 325.5 266 L 331.5 268 Q 332.8 265.8 334 268.5 L 334 270.5 L 337.5 274 L 340 275.5 L 342 278.5 L 342 282.5 Q 344.5 283 344 286.5 Q 342 287.5 343 291.5 L 344 292.5 Q 340.5 294 343 295.5 Q 343.1 301.1 339.5 303 L 335 305 Q 334.6 309.7 330.5 312 L 327.5 314 L 325.5 315 Q 320.9 314.1 319 310.5 L 316.5 307 L 310 303.5 Q 309.3 301.3 311.5 302 L 319.5 304 L 321 305.5 L 320.5 307 L 322 307 Q 320.5 303.2 323.5 304 L 324.5 303 L 331.5 303 L 336 299.5 L 335 296.5 L 339 288.5 L 333.5 280 L 331.5 280 L 322.5 274 L 321.5 275 L 317.5 271 Q 312 270 311 273.5 L 312 282 Q 306.4 284.2 308 278.5 Q 307.3 276.3 303.5 277 L 302 279.5 Q 304 280.5 302 281.5 L 301 283.5 L 305 286.5 Q 306.8 291.8 301.5 290 L 300 293 Q 295.8 292 294.5 295 L 294 293.5 L 295 291.5 L 294.5 290 L 296 289.5 Q 293.5 288 297 286.5 L 295 280.5 L 292 277.5 L 297.5 274 L 299.5 274 L 301 274.5 L 302 272.5 L 302 263 Z "/><path fill="rgb(235,178,79)" stroke="rgb(235,178,79)" stroke-width="0.5" opacity="1" d="M 369.5 311 Q 373.5 310.5 374 313.5 Q 373.3 315.8 375.5 315 L 381.5 320 L 389.5 323 L 407 334.5 L 397.5 335 L 395.5 336 L 391.5 333 L 385.5 332 L 383 329.5 L 380.5 326 L 374.5 326 L 362 319.5 L 362 317.5 L 367.5 312 L 369.5 311 Z "/><path fill="rgb(235,178,79)" stroke="rgb(235,178,79)" stroke-width="0.5" opacity="1" d="M 258.5 320 Q 263.5 322.5 258.5 325 Q 254 324.5 253.5 328 L 249.5 328 L 247 327 L 248.5 324 L 251.5 324 L 258.5 320 Z "/><path fill="rgb(235,178,79)" stroke="rgb(235,178,79)" stroke-width="0.5" opacity="1" d="M 242.5 328 L 245 329.5 L 239.5 338 L 238 338 Q 239.5 341.7 236.5 341 L 230 336.5 L 233.5 332 L 236.5 332 L 242.5 328 Z "/><path fill="rgb(235,178,79)" stroke="rgb(235,178,79)" stroke-width="0.5" opacity="1" d="M 421.5 342 L 424.5 342 L 429.5 346 L 431.5 346 L 446 354 L 448.5 359 L 452.5 358 L 456 363 L 450.5 362 L 449.5 363 L 442.5 363 L 430 354.5 L 428.5 352 L 420.5 350 L 419 348.5 Q 418.4 343.4 421.5 342 Z "/><path fill="rgb(235,178,79)" stroke="rgb(235,178,79)" stroke-width="0.5" opacity="1" d="M 316.5 343 Q 323 342 325 345.5 L 326 352.5 L 324.5 357 L 318.5 354 L 315 355 Q 316.3 359.1 313 358 Q 311.3 355.6 312 349.5 Q 312.9 344.9 316.5 343 Z "/><path fill="rgb(235,178,79)" stroke="rgb(235,178,79)" stroke-width="0.5" opacity="1" d="M 198.5 350 L 201 351.5 L 199 352 Q 198.3 355.4 201 356.5 L 196.5 363 L 194.5 363 L 190.5 366 Q 189.5 364 188.5 366 L 185.5 367 L 181.5 365 Q 180.8 367.7 176.5 367 L 173 370.5 L 174 374 L 168.5 373 L 167 371.5 L 167 367.5 L 170 362 L 172.5 361 Q 173.5 363 174.5 361 L 177.5 360 Q 178 362.5 181.5 362 L 185.5 358 Q 189.3 358.8 190 356.5 L 191.5 354 L 198.5 350 Z "/><path fill="rgb(235,178,79)" stroke="rgb(235,178,79)" stroke-width="0.5" opacity="1" d="M 129.5 358 L 131 358 L 131 363 Q 128 362.3 127 364.5 L 129 368.5 L 128 371.5 Q 131.5 373 130 379.5 L 129 381.5 L 130 382.5 L 130 391 Q 127.3 392.1 128 389.5 L 124.5 385 L 122 383.5 L 123 378.5 Q 120.2 376.8 121 371.5 L 122 369 Q 124.7 370.1 124 367.5 L 125 363.5 L 129.5 358 Z "/><path fill="rgb(235,178,79)" stroke="rgb(235,178,79)" stroke-width="0.5" opacity="1" d="M 323 425 L 326 425 L 326 432.5 L 327 434.5 L 326 435.5 L 326 446.5 L 323.5 449 L 315.5 450 L 312 445.5 L 315.5 438 L 319 435.5 Q 318.3 433.3 320.5 434 Q 324.8 432.1 323 425 Z "/><path fill="rgb(235,178,79)" stroke="rgb(235,178,79)" stroke-width="0.5" opacity="1" d="M 200.5 431 L 203.5 431 L 211 435.5 L 211.5 437 L 214.5 436 Q 219.5 437.8 218 445 Q 215 446.3 216 442.5 L 214.5 441 L 208.5 440 L 203.5 436 L 202 436.5 L 203 434.5 L 200.5 431 Z "/><path fill="rgb(228,173,89)" stroke="rgb(228,173,89)" stroke-width="0.5" opacity="1" d="M 315.5 127 Q 318.9 126.1 317 131.5 L 316 132.5 L 315 142 Q 311.7 140.9 313 145 Q 317.6 143.8 319 146.5 L 318 148.5 L 320 149.5 L 321.5 147 Q 324.8 148.1 324 145.5 L 325 143.5 L 321 141.5 Q 322 139.3 325 140 L 326.5 134 L 327 140.5 L 328 141.5 L 328 150.5 L 327 153.5 L 328.5 159 L 329.5 140 L 330 169.5 L 329 169.5 L 328.5 167 L 328 180.5 L 327 181.5 L 327 200.5 L 328 202.5 L 327 205.5 Q 329.5 207 328 212.5 L 327 215.5 L 328 216.5 L 328 227.5 L 327 232 Q 324 233.3 325 229.5 L 320 225.5 L 318.5 223 L 315 224.5 L 316.5 228 L 320 229.5 L 320 234 Q 324.1 232.7 323 236 Q 315.5 237.8 313.5 233 L 311 234.5 L 311 129.5 L 313.5 129 L 315.5 127 Z "/><path fill="rgb(228,173,89)" stroke="rgb(228,173,89)" stroke-width="0.5" opacity="1" d="M 452.5 212 Q 457.6 211.4 460 213.5 L 455.5 219 Q 452.9 218.3 454 221 L 452 221 L 452 223.5 L 448.5 226 L 446.5 225 L 432.5 233 L 430 232.5 L 432.5 229 L 434 229.5 L 436.5 226 L 441 225 L 442.5 222 L 444 222.5 L 446 216.5 L 449.5 213 L 452.5 212 Z "/><path fill="rgb(228,173,89)" stroke="rgb(228,173,89)" stroke-width="0.5" opacity="1" d="M 125 221 L 130 223 L 131 228.5 L 127.5 233 L 125 229.5 L 125 221 Z "/><path fill="rgb(228,173,89)" stroke="rgb(228,173,89)" stroke-width="0.5" opacity="1" d="M 218.5 230 L 221.5 232 Q 226.3 231.3 228 233.5 L 226 236.5 L 230 239.5 L 230 241 L 235 241 L 235 243.5 L 240.5 248 Q 241.8 245.7 243 248.5 L 244 253 L 231.5 246 L 226.5 246 L 223 245 L 221.5 242 Q 217.8 242.8 217 240.5 L 213.5 235 L 209 234 L 209.5 232 L 215.5 232 L 218.5 230 Z "/><path fill="rgb(228,173,89)" stroke="rgb(228,173,89)" stroke-width="0.5" opacity="1" d="M 413.5 238 L 415 238.5 L 413 241.5 Q 415.7 243.2 411.5 245 L 406 247 Q 407.1 249.7 404.5 249 L 398.5 253 L 395 253 Q 395.3 249 398.5 247 L 402.5 246 L 409.5 240 L 410.5 241 L 413.5 238 Z "/><path fill="rgb(228,173,89)" stroke="rgb(228,173,89)" stroke-width="0.5" opacity="1" d="M 129.5 259 L 132 260.5 Q 133.1 263.8 130.5 263 L 129 265.5 L 131 272.5 L 131 280.5 L 134 285.5 L 134 290.5 L 136 292.5 L 136 299.5 L 133.5 304 L 130.5 302 L 122 305.5 Q 122.7 308.1 120 307 L 120 284.5 L 121.5 284 L 123 284.5 L 126 279.5 Q 125 273.5 128 271.5 L 126 269.5 L 125 263.5 L 127.5 260 L 129.5 259 Z "/><path fill="rgb(228,173,89)" stroke="rgb(228,173,89)" stroke-width="0.5" opacity="1" d="M 295 295 Q 298.8 294 300 296.5 L 302 302 L 304.5 301 L 307.5 305 L 310.5 304 L 319 309.5 L 321 312.5 L 315 313 L 314.5 315 L 307.5 312 L 305.5 313 L 302 311 Q 302.8 308 300.5 307 Q 297.2 308.1 298 305.5 L 296 302.5 L 295 295 Z "/><path fill="rgb(228,173,89)" stroke="rgb(228,173,89)" stroke-width="0.5" opacity="1" d="M 248 328 L 254 328 L 254 332.5 L 241.5 340 L 239 338.5 L 244.5 331 L 248 329.5 L 248 328 Z "/><path fill="rgb(228,173,89)" stroke="rgb(228,173,89)" stroke-width="0.5" opacity="1" d="M 387.5 333 Q 394.2 332.2 396.5 336 L 397.5 335 L 407 335 L 408.5 338 L 412 340.5 Q 413 345 410.5 346 L 403.5 343 Q 402.1 345.2 398 344 L 396.5 341 L 391 337.5 L 389.5 335 Q 385.7 334.3 387.5 333 Z "/><path fill="rgb(228,173,89)" stroke="rgb(228,173,89)" stroke-width="0.5" opacity="1" d="M 311.5 350 L 313 358 Q 316.3 359.1 315 355 L 317.5 355 Q 318.5 353 319.5 355 L 325 357.5 L 323 363.5 L 325 370.5 L 325 376.5 L 327 380.5 L 327 389.5 Q 325 390.5 327 391.5 L 326 393.5 Q 329 394.8 328 399 L 330 399.5 L 330 411.5 L 329 411.5 L 328.5 404 L 328 408.5 L 323 415.5 L 323 419.5 L 325 425 L 323 425.5 L 323 431.5 L 319 434 L 316.5 438 L 314 439.5 L 312.5 443 L 311 441.5 L 311.5 350 Z "/><path fill="rgb(233,172,79)" stroke="rgb(233,172,79)" stroke-width="0.5" opacity="1" d="M 316 135 L 321.5 137 L 326 136 L 325 140 Q 322 139.3 321 141.5 L 325 143.5 L 324 147 Q 321 146.3 320 148.5 L 319.5 150 L 318 147.5 Q 320.3 146.2 317.5 145 Q 311.2 146.9 313 142 Q 316.3 143.3 315 138.5 L 316 135 Z "/><path fill="rgb(233,172,79)" stroke="rgb(233,172,79)" stroke-width="0.5" opacity="1" d="M 316.5 223 L 320 224.5 L 322.5 228 L 325 229.5 Q 325.5 233.5 322.5 234 Q 317.9 235.3 320 229.5 L 315 226.5 L 316.5 223 Z "/><path fill="rgb(233,172,79)" stroke="rgb(233,172,79)" stroke-width="0.5" opacity="1" d="M 313.5 271 L 317.5 271 L 321.5 275 L 323.5 274 L 335 281.5 L 339 289.5 L 337 291.5 L 335 298.5 Q 337.8 300.3 333.5 302 Q 330.7 304.2 324.5 303 L 322 304 Q 323.5 307.7 320.5 307 Q 322 305.5 319.5 304 L 310 302 Q 311.1 304.7 308.5 304 Q 307.3 306.3 306 303.5 L 304.5 301 L 302 302 L 298.5 295 L 295 294.5 Q 296.2 292 300 293 L 301.5 290 Q 306.8 291.8 305 286.5 L 301 283.5 L 303 280.5 L 302 278.5 Q 302.8 276.3 306.5 277 Q 309 278.2 308 282 L 312 282 L 312 275.5 L 311 273.5 L 313.5 271 Z "/><path fill="rgb(214,168,114)" stroke="rgb(214,168,114)" stroke-width="0.5" opacity="1" d="M 137.5 198 L 138 292.5 L 137 292.5 L 137.5 198 Z "/><path fill="rgb(214,168,114)" stroke="rgb(214,168,114)" stroke-width="0.5" opacity="1" d="M 320.5 327 L 321 328.5 L 320 328.5 L 320.5 327 Z "/><path fill="rgb(214,168,114)" stroke="rgb(214,168,114)" stroke-width="0.5" opacity="1" d="M 137.5 339 L 138 378.5 L 137 378.5 L 137.5 339 Z "/><path fill="rgb(183,138,106)" stroke="rgb(183,138,106)" stroke-width="0.5" opacity="1" d="M 502.5 260 L 503 350.5 L 502 350.5 L 502.5 260 Z "/><path fill="rgb(165,125,106)" stroke="rgb(165,125,106)" stroke-width="0.5" opacity="1" d="M 502.5 204 L 503 241.5 L 502 241.5 L 502.5 204 Z "/></g></svg>